<svg width="1200" height="900" viewBox="0 0 1200 900" fill="none" xmlns="http://www.w3.org/2000/svg">
  <rect width="1200" height="900" rx="40" fill="#FFFDF7"/>
  <rect x="68" y="68" width="1064" height="764" rx="36" fill="white"/>
  <rect x="68" y="68" width="1064" height="96" rx="36" fill="#F8FAFC"/>
  <rect x="114" y="103" width="148" height="26" rx="13" fill="#0F172A"/>
  <rect x="858" y="103" width="86" height="26" rx="13" fill="#E2E8F0"/>
  <rect x="970" y="103" width="118" height="26" rx="13" fill="#4F46E5"/>
  <rect x="116" y="214" width="968" height="256" rx="32" fill="#F5F3FF"/>
  <circle cx="866" cy="342" r="108" fill="#C4B5FD"/>
  <circle cx="918" cy="288" r="54" fill="#DDD6FE"/>
  <rect x="174" y="278" width="210" height="20" rx="10" fill="#C4B5FD"/>
  <rect x="174" y="322" width="308" height="72" rx="18" fill="#1E1B4B"/>
  <rect x="174" y="418" width="170" height="54" rx="27" fill="#4F46E5"/>
  <rect x="116" y="526" width="298" height="246" rx="28" fill="#F8FAFC"/>
  <rect x="451" y="526" width="298" height="246" rx="28" fill="#F8FAFC"/>
  <rect x="786" y="526" width="298" height="246" rx="28" fill="#F8FAFC"/>
  <rect x="156" y="566" width="90" height="90" rx="26" fill="#EDE9FE"/>
  <rect x="491" y="566" width="90" height="90" rx="26" fill="#EDE9FE"/>
  <rect x="826" y="566" width="90" height="90" rx="26" fill="#EDE9FE"/>
  <rect x="156" y="684" width="154" height="18" rx="9" fill="#CBD5E1"/>
  <rect x="491" y="684" width="154" height="18" rx="9" fill="#CBD5E1"/>
  <rect x="826" y="684" width="154" height="18" rx="9" fill="#CBD5E1"/>
</svg>
