<svg width="1200" height="900" viewBox="0 0 1200 900" fill="none" xmlns="http://www.w3.org/2000/svg">
  <rect width="1200" height="900" rx="40" fill="#F8FAFC"/>
  <rect x="58" y="58" width="1084" height="784" rx="34" fill="white"/>
  <rect x="58" y="58" width="1084" height="120" rx="34" fill="#0F172A"/>
  <circle cx="120" cy="119" r="12" fill="#FB7185"/>
  <circle cx="158" cy="119" r="12" fill="#FBBF24"/>
  <circle cx="196" cy="119" r="12" fill="#34D399"/>
  <rect x="760" y="103" width="120" height="30" rx="15" fill="#1E293B"/>
  <rect x="900" y="103" width="160" height="30" rx="15" fill="#4F46E5"/>
  <rect x="110" y="246" width="424" height="486" rx="28" fill="#F8FAFC"/>
  <rect x="162" y="304" width="276" height="22" rx="11" fill="#CBD5E1"/>
  <rect x="162" y="350" width="320" height="68" rx="18" fill="#0F172A"/>
  <rect x="162" y="442" width="248" height="16" rx="8" fill="#94A3B8"/>
  <rect x="162" y="474" width="290" height="16" rx="8" fill="#CBD5E1"/>
  <rect x="162" y="550" width="158" height="54" rx="27" fill="#4F46E5"/>
  <rect x="580" y="246" width="512" height="228" rx="28" fill="#EEF2FF"/>
  <rect x="628" y="292" width="160" height="18" rx="9" fill="#A5B4FC"/>
  <rect x="628" y="334" width="226" height="44" rx="22" fill="#4338CA"/>
  <rect x="628" y="568" width="464" height="124" rx="28" fill="#F8FAFC"/>
  <rect x="668" y="604" width="84" height="48" rx="18" fill="#DBEAFE"/>
  <rect x="778" y="604" width="84" height="48" rx="18" fill="#E2E8F0"/>
  <rect x="888" y="604" width="84" height="48" rx="18" fill="#E2E8F0"/>
  <path d="M660 449C695.333 399 730.667 374 766 374C819 374 833 438 879 438C925 438 937 374 992 374C1028.67 374 1062 399 1092 449" stroke="#6366F1" stroke-width="18" stroke-linecap="round"/>
</svg>
