<svg width="1200" height="900" viewBox="0 0 1200 900" fill="none" xmlns="http://www.w3.org/2000/svg">
  <rect width="1200" height="900" rx="40" fill="#F8FAFC"/>
  <rect x="62" y="62" width="1076" height="776" rx="36" fill="white"/>
  <rect x="62" y="62" width="1076" height="104" rx="36" fill="#0F172A"/>
  <rect x="108" y="102" width="164" height="24" rx="12" fill="#334155"/>
  <rect x="948" y="98" width="136" height="32" rx="16" fill="#4F46E5"/>
  <rect x="110" y="224" width="520" height="538" rx="32" fill="#0F172A"/>
  <rect x="174" y="290" width="220" height="20" rx="10" fill="#475569"/>
  <rect x="174" y="334" width="286" height="88" rx="22" fill="#F8FAFC"/>
  <rect x="174" y="454" width="198" height="18" rx="9" fill="#94A3B8"/>
  <rect x="174" y="486" width="248" height="18" rx="9" fill="#475569"/>
  <rect x="174" y="560" width="164" height="58" rx="29" fill="#4F46E5"/>
  <rect x="680" y="224" width="348" height="168" rx="30" fill="#EEF2FF"/>
  <rect x="720" y="270" width="160" height="18" rx="9" fill="#A5B4FC"/>
  <rect x="720" y="312" width="210" height="54" rx="22" fill="#4338CA"/>
  <rect x="680" y="424" width="348" height="338" rx="30" fill="#F8FAFC"/>
  <path d="M730 678 798 566 858 618 930 508 978 560" stroke="#4F46E5" stroke-width="16" stroke-linecap="round" stroke-linejoin="round"/>
  <circle cx="730" cy="678" r="16" fill="#E0E7FF"/>
  <circle cx="798" cy="566" r="16" fill="#C7D2FE"/>
  <circle cx="858" cy="618" r="16" fill="#A5B4FC"/>
  <circle cx="930" cy="508" r="16" fill="#818CF8"/>
  <circle cx="978" cy="560" r="16" fill="#6366F1"/>
</svg>
