<svg width="1200" height="900" viewBox="0 0 1200 900" fill="none" xmlns="http://www.w3.org/2000/svg">
  <rect width="1200" height="900" rx="40" fill="#FCFBF8"/>
  <rect x="64" y="64" width="1072" height="772" rx="36" fill="white"/>
  <rect x="64" y="64" width="1072" height="92" rx="36" fill="#F8FAFC"/>
  <rect x="112" y="97" width="152" height="26" rx="13" fill="#1E293B"/>
  <rect x="940" y="97" width="144" height="26" rx="13" fill="#E2E8F0"/>
  <rect x="112" y="206" width="976" height="286" rx="34" fill="#E2E8F0"/>
  <rect x="680" y="236" width="360" height="226" rx="28" fill="#CBD5E1"/>
  <rect x="164" y="258" width="182" height="18" rx="9" fill="#94A3B8"/>
  <rect x="164" y="302" width="336" height="78" rx="22" fill="#0F172A"/>
  <rect x="164" y="410" width="152" height="52" rx="26" fill="#4F46E5"/>
  <rect x="112" y="544" width="440" height="220" rx="30" fill="#F8FAFC"/>
  <rect x="584" y="544" width="504" height="220" rx="30" fill="#F8FAFC"/>
  <rect x="162" y="594" width="132" height="132" rx="26" fill="#E2E8F0"/>
  <rect x="340" y="594" width="160" height="18" rx="9" fill="#CBD5E1"/>
  <rect x="340" y="630" width="126" height="18" rx="9" fill="#E2E8F0"/>
  <rect x="634" y="594" width="404" height="18" rx="9" fill="#CBD5E1"/>
  <rect x="634" y="632" width="350" height="18" rx="9" fill="#E2E8F0"/>
  <rect x="634" y="670" width="284" height="18" rx="9" fill="#E2E8F0"/>
</svg>
